name analog
datacolumns 19
datarows 49
range 0.0 0.024
endheader
time	ground_force_vx	ground_force_vy	ground_force_vz	ground_force_px	ground_force_py	ground_force_pz	l_ground_force_vx	l_ground_force_vy	l_ground_force_vz	l_ground_force_px	l_ground_force_py	l_ground_force_pz	ground_torque_x	ground_torque_y	ground_torque_z	l_ground_torque_x	l_ground_torque_y	l_ground_torque_z
0.0	-0.0	-0.0	-0.0	-0.0	-0.0	-0.0	6.604763984680176	-105.5088119506836	-716.3870849609375	-0.0	-0.0	-0.0	-0.0	-0.0	-0.0	180710.0	-41448.078125	7291.3818359375
0.0005	-0.0	-0.0	-0.0	-0.0	-0.0	-0.0	6.685403347015381	-105.07460021972656	-715.523193359375	-0.0	-0.0	-0.0	-0.0	-0.0	-0.0	180505.359375	-41347.97265625	7150.16064453125
0.001	-0.0	-0.0	-0.0	-0.0	-0.0	-0.0	6.2948408126831055	-104.22576141357422	-713.96923828125	-0.0	-0.0	-0.0	-0.0	-0.0	-0.0	180065.171875	-41425.19921875	7077.421875
0.0015	-0.0	-0.0	-0.0	-0.0	-0.0	-0.0	6.248898983001709	-104.06761932373048	-713.21923828125	-0.0	-0.0	-0.0	-0.0	-0.0	-0.0	180169.375	-41171.24609375	6935.970703125
0.002	-0.0	-0.0	-0.0	-0.0	-0.0	-0.0	5.632172107696533	-103.25350189208984	-712.9822998046875	-0.0	-0.0	-0.0	-0.0	-0.0	-0.0	179785.65625	-41099.4609375	6735.8505859375
0.0025	-0.0	-0.0	-0.0	-0.0	-0.0	-0.0	5.315792083740234	-102.52896118164062	-711.8931884765625	-0.0	-0.0	-0.0	-0.0	-0.0	-0.0	179746.640625	-41166.12109375	6520.58203125
0.003	-0.0	-0.0	-0.0	-0.0	-0.0	-0.0	5.162131309509277	-101.74662017822266	-711.514892578125	-0.0	-0.0	-0.0	-0.0	-0.0	-0.0	179683.15625	-41167.546875	6397.86474609375
0.0035	-0.0	-0.0	-0.0	-0.0	-0.0	-0.0	4.23281717300415	-101.16627502441406	-710.6231079101562	-0.0	-0.0	-0.0	-0.0	-0.0	-0.0	179677.40625	-41045.65234375	6138.97412109375
0.004	-0.0	-0.0	-0.0	-0.0	-0.0	-0.0	4.158285140991211	-100.56997680664062	-709.1207885742188	-0.0	-0.0	-0.0	-0.0	-0.0	-0.0	179345.15625	-40978.40234375	6002.8994140625
0.0045000000000000005	-0.0	-0.0	-0.0	-0.0	-0.0	-0.0	3.770230770111084	-100.1156768798828	-706.7832641601562	-0.0	-0.0	-0.0	-0.0	-0.0	-0.0	178966.03125	-40797.5703125	5790.20166015625
0.005	-0.0	-0.0	-0.0	-0.0	-0.0	-0.0	3.248739004135132	-99.7701416015625	-704.558837890625	-0.0	-0.0	-0.0	-0.0	-0.0	-0.0	178267.703125	-40649.34375	5682.55419921875
0.0055	-0.0	-0.0	-0.0	2.541551351547241	-4.246562480926514	-24.77733993530273	2.98467755317688	-99.27357482910156	-700.9951782226562	-0.0	-0.0	-0.0	-0.0	-0.0	-0.0	177349.328125	-40585.73046875	5485.81396484375
0.006	-0.0	-0.0	-0.0	9.416793823242188	-5.114978790283203	-33.60047912597656	2.641448497772217	-98.69901275634766	-697.0614013671875	-0.0	-0.0	-0.0	-0.0	-0.0	-0.0	176531.375	-40214.4375	5308.4609375
0.006500000000000001	-0.0	-0.0	-0.0	15.751358032226562	-5.113825798034668	-50.57069396972656	2.0819873809814453	-98.10708618164062	-692.8591918945312	-0.0	-0.0	-0.0	-0.0	-0.0	-0.0	175302.0	-39959.09765625	5072.6181640625
0.007	-0.0	-0.0	-0.0	16.86078643798828	-3.5100114345550537	-69.04808807373047	1.432407021522522	-97.1174774169922	-687.1663208007812	-0.0	-0.0	-0.0	-0.0	-0.0	-0.0	174017.203125	-39875.6953125	4865.671875
0.0075	-0.0	-0.0	-0.0	13.70168399810791	-2.375062942504883	-84.55543518066406	1.1169458627700806	-96.51453399658205	-681.1749267578125	-0.0	-0.0	-0.0	-0.0	-0.0	-0.0	172355.5625	-39702.43359375	4603.8701171875
0.008	-0.0	-0.0	-0.0	8.404520988464355	-0.9871382713317872	-99.4970703125	0.8144831657409668	-95.47166442871094	-674.0372314453125	-0.0	-0.0	-0.0	-0.0	-0.0	-0.0	170706.796875	-39197.359375	4485.830078125
0.0085	-0.0	-0.0	-0.0	6.161439895629883	1.74540913105011	-116.6073760986328	0.6341753005981445	-94.47320556640624	-666.172119140625	-0.0	-0.0	-0.0	-0.0	-0.0	-0.0	168721.859375	-38795.6171875	4282.158203125
0.009000000000000001	-0.0	-0.0	-0.0	6.109658718109131	5.843545436859131	-132.1762237548828	0.4934607148170471	-93.2334442138672	-656.657958984375	-0.0	-0.0	-0.0	-0.0	-0.0	-0.0	166195.09375	-38058.421875	4136.3056640625
0.0095	-0.0	-0.0	-0.0	6.632823467254639	9.046957969665527	-147.5771942138672	0.4125415980815887	-91.7662353515625	-646.6117553710938	-0.0	-0.0	-0.0	-0.0	-0.0	-0.0	163767.625	-37273.03125	4078.099365234375
0.01	-0.0	-0.0	-0.0	5.763011932373047	12.50162124633789	-165.3402099609375	0.3270066678524017	-89.94591522216797	-636.0244750976562	-0.0	-0.0	-0.0	-0.0	-0.0	-0.0	160994.265625	-36753.33203125	3890.445068359375
0.0105	-0.0	-0.0	-0.0	4.027844429016113	15.499176025390623	-178.91033935546875	0.1909042298793792	-87.87615966796875	-623.6831665039062	-0.0	-0.0	-0.0	-0.0	-0.0	-0.0	158181.203125	-35876.25	3790.302978515625
0.011	-0.0	-0.0	-0.0	2.8953347206115723	17.825328826904297	-192.2032928466797	0.01161047257483	-85.87274169921875	-612.6513671875	-0.0	-0.0	-0.0	-0.0	-0.0	-0.0	155189.546875	-35234.61328125	3719.080810546875
0.0115	-0.0	-0.0	-0.0	2.2650861740112305	21.0385856628418	-204.3211669921875	0.2625144422054291	-83.49823760986328	-598.7950439453125	-0.0	-0.0	-0.0	-0.0	-0.0	-0.0	151839.515625	-34235.734375	3381.26123046875
0.012	-0.0	-0.0	-0.0	2.293952465057373	23.74640655517578	-216.17874145507807	0.0759434401988983	-81.13701629638672	-587.4344482421875	-0.0	-0.0	-0.0	-0.0	-0.0	-0.0	148921.296875	-33470.14453125	3282.71630859375
0.0125	-0.0	-0.0	-0.0	2.3692657947540283	26.39975357055664	-226.69407653808597	0.0887226611375808	-78.45204162597656	-574.55712890625	-0.0	-0.0	-0.0	-0.0	-0.0	-0.0	145534.84375	-32453.634765625	3163.90087890625
0.013000000000000001	-0.0	-0.0	-0.0	2.439559936523437	28.98361015319824	-238.3724670410156	-0.1185496896505355	-75.62078094482422	-561.0052490234375	-0.0	-0.0	-0.0	-0.0	-0.0	-0.0	142370.171875	-31536.818359375	2926.90283203125
0.0135	-0.0	-0.0	-0.0	2.1994946002960205	31.81646156311035	-249.0041046142578	-0.0858097374439239	-72.97834014892578	-547.0863647460938	-0.0	-0.0	-0.0	-0.0	-0.0	-0.0	138831.078125	-30267.93359375	2669.648681640625
0.014	-0.0	-0.0	-0.0	1.8222872018814087	33.874855041503906	-258.19921875	-0.2286960482597351	-70.81901550292969	-533.9816284179688	-0.0	-0.0	-0.0	-0.0	-0.0	-0.0	135791.109375	-29706.275390625	2447.475830078125
0.0145	-0.0	-0.0	-0.0	1.5778143405914309	35.69244384765625	-266.06024169921875	-0.2699387669563293	-67.97610473632812	-521.602294921875	-0.0	-0.0	-0.0	-0.0	-0.0	-0.0	132485.109375	-28666.8828125	2059.834228515625
0.015	-0.0	-0.0	-0.0	1.948015809059143	37.19666290283203	-273.91387939453125	0.0273872893303632	-65.26158905029297	-508.5574035644531	-0.0	-0.0	-0.0	-0.0	-0.0	-0.0	129257.828125	-27709.68359375	1839.6195068359373
0.0155	-0.0	-0.0	-0.0	1.4273681640625	39.01326751708984	-283.259521484375	-0.2077020704746246	-62.93685150146485	-496.0168762207031	-0.0	-0.0	-0.0	-0.0	-0.0	-0.0	125806.8984375	-26779.525390625	1507.5704345703125
0.016	-0.0	-0.0	-0.0	1.2189905643463137	40.05219650268555	-292.2071533203125	-0.3246008455753326	-60.60772705078125	-483.3212585449219	-0.0	-0.0	-0.0	-0.0	-0.0	-0.0	122725.9765625	-25864.103515625	1355.63037109375
0.0165	-0.0	-0.0	-0.0	1.071544170379639	41.38692474365234	-300.5117492675781	-0.9154648780822754	-58.26044464111328	-470.88323974609375	-0.0	-0.0	-0.0	-0.0	-0.0	-0.0	119623.796875	-24982.88671875	969.1229248046876
0.017	-0.0	-0.0	-0.0	0.9197621941566468	42.20854949951172	-307.39617919921875	-1.308033466339111	-56.20048522949219	-459.4160461425781	-0.0	-0.0	-0.0	-0.0	-0.0	-0.0	116723.8671875	-24133.35546875	639.94189453125
0.0175	-0.0	-0.0	-0.0	1.1933562755584717	43.19964218139648	-314.6899108886719	-1.7727365493774414	-53.99595260620117	-447.9440612792969	-0.0	-0.0	-0.0	-0.0	-0.0	-0.0	113969.2421875	-23057.9375	211.29444885253903
0.018000000000000002	-0.0	-0.0	-0.0	1.0928287506103516	43.95563888549805	-322.718017578125	-1.8476343154907229	-51.73540878295898	-436.7283325195313	-0.0	-0.0	-0.0	-0.0	-0.0	-0.0	110981.7890625	-22075.97265625	-39.74702835083008
0.0185	-0.0	-0.0	-0.0	1.175410270690918	43.92810821533203	-330.82061767578125	-2.334182024002075	-49.930419921875	-425.79052734375	-0.0	-0.0	-0.0	-0.0	-0.0	-0.0	108359.40625	-21137.017578125	-380.4953002929688
0.019	-0.0	-0.0	-0.0	1.1699936389923096	44.83346557617188	-339.797607421875	-2.7133147716522217	-48.10579681396485	-415.5491638183594	-0.0	-0.0	-0.0	-0.0	-0.0	-0.0	105276.0859375	-20235.005859375	-802.9814453125
0.0195	-0.0	-0.0	-0.0	1.1014405488967896	45.753902435302734	-349.0536804199219	-3.0154640674591064	-46.13289642333984	-403.15283203125	-0.0	-0.0	-0.0	-0.0	-0.0	-0.0	102654.046875	-19377.51953125	-1111.431884765625
0.02	-0.0	-0.0	-0.0	2.177860736846924	46.80867004394531	-357.0056457519531	-3.4382874965667725	-44.30706024169922	-393.8114929199219	-0.0	-0.0	-0.0	-0.0	-0.0	-0.0	99934.453125	-18458.017578125	-1380.6925048828125
0.0205	-0.0	-0.0	-0.0	2.3933348655700684	47.72955322265625	-366.3046875	-3.681563377380371	-42.5853385925293	-383.8900146484375	-0.0	-0.0	-0.0	-0.0	-0.0	-0.0	97362.296875	-17422.32421875	-1674.6065673828125
0.021	-0.0	-0.0	-0.0	2.5427703857421875	48.76214599609375	-375.0786743164063	-4.12485408782959	-40.8631706237793	-372.748046875	-0.0	-0.0	-0.0	-0.0	-0.0	-0.0	94590.984375	-16426.458984375	-2035.4588623046875
0.021500000000000002	-0.0	-0.0	-0.0	2.617142915725708	50.269996643066406	-384.4949340820313	-4.228530883789063	-39.00872802734375	-363.698974609375	-0.0	-0.0	-0.0	-0.0	-0.0	-0.0	92110.9296875	-15537.646484375	-2306.940185546875
0.022	-0.0	-0.0	-0.0	3.174415111541748	51.94819641113281	-393.8837585449219	-4.982502460479736	-37.59555816650391	-353.22625732421875	-0.0	-0.0	-0.0	-0.0	-0.0	-0.0	89379.21875	-14457.359375	-2776.822265625
0.0225	-0.0	-0.0	-0.0	3.2115635871887207	53.34458160400391	-401.4463195800781	-5.441110610961914	-35.931884765625	-343.04412841796875	-0.0	-0.0	-0.0	-0.0	-0.0	-0.0	86843.0859375	-13457.611328125	-3048.6455078125
0.023	-0.0	-0.0	-0.0	3.4274396896362305	55.208038330078125	-412.1885070800781	-5.832734107971191	-34.135475158691406	-333.3816833496094	-0.0	-0.0	-0.0	-0.0	-0.0	-0.0	84283.53125	-12410.0146484375	-3283.190185546875
0.0235	-0.0	-0.0	-0.0	3.359851598739624	57.42948532104492	-425.2188720703125	-6.269946575164795	-32.64906311035156	-323.781982421875	-0.0	-0.0	-0.0	-0.0	-0.0	-0.0	81762.5390625	-11162.919921875	-3671.22900390625
0.024	-0.0	-0.0	-0.0	3.5907230377197266	59.634315490722656	-435.3458862304688	-6.50458574295044	-30.897396087646484	-314.4703369140625	-0.0	-0.0	-0.0	-0.0	-0.0	-0.0	79558.609375	-10586.4541015625	-3962.54833984375
